<svg version="1.1" id="Layer_1" xmlns="http://www.w3.org/2000/svg" xmlns:xlink="http://www.w3.org/1999/xlink" x="0px" y="0px"
	 width="600px" height="600px" viewBox="0 0 600 600" enable-background="new 0 0 600 600" xml:space="preserve">
<rect class="secondary" x="119.144" y="69.316" fill="#FFFFFF" width="358.345" height="431.365"/>
<g>
	<defs>
		<rect id="logo-linkedin-circle_1" y="-0.001" width="599.998" height="599.999"/>
	</defs>
	<clipPath id="logo-linkedin-circle_2">
		<use xlink:href="#logo-linkedin-circle_1"  overflow="visible"/>
	</clipPath>
	<path class="primary" clip-path="url(#logo-linkedin-circle_2)" fill="#002b5c" d="M450.005,443.363L450.005,443.363h-64.307V339.872
		c0-25.983-9.313-43.75-32.61-43.75c-17.739,0-28.331,12-32.975,23.532c-1.722,4.148-2.139,9.861-2.139,15.678v108.031h-64.281
		c0.835-175.312,0.835-175.312,0-193.417h38.193c0,0,26.088,0,26.088,13.697c0,0,0-13.697,0,0c0,0,0,13.696,4.277,7.069
		c4.306-6.6,19.566-25.305,53.689-25.305c42.314,0,74.063,27.601,74.063,87.03V443.363z M185.942,223.493h-0.417
		c-21.575,0-35.532-14.87-35.532-33.419c0-18.992,14.4-33.444,36.367-33.444c22.018,0,35.558,14.452,35.766,23.948
		c0,0,0.209,9.496,0.209,18.758C222.335,208.624,208.378,223.493,185.942,223.493 M218.109,443.363L218.109,443.363h-32.167
		c0,0-32.14,0-32.14-37.828V249.946h32.14c0,0,32.167,0,32.167,37.828V443.363z M299.999-0.002
		C134.314-0.002-0.013,134.324-0.013,300.01c0,165.711,134.327,299.986,300.012,299.986c165.686,0,300.012-134.275,300.012-299.986
		C600.011,134.324,465.685-0.002,299.999-0.002"/>
</g>
</svg>
